<svg width="100%" height="100%" viewBox="0 0 15 15" version="1.1" xmlns="http://www.w3.org/2000/svg"
     style="fill-rule:evenodd;clip-rule:evenodd;stroke-linejoin:round;stroke-miterlimit:2;">
        <path fill="currentColor"
              d="M2.5,1C1.672,1 1,1.672 1,2.5L1,12.5C1,13.328 1.672,14 2.5,14L12.5,14C13.328,14 14,13.328 14,12.5L14,2.5C14,1.672 13.328,1 12.5,1L2.5,1ZM12.5,13C12.776,13 13,12.776 13,12.5L13,2.5C13,2.224 12.776,2 12.5,2L6,2L6,13L12.5,13ZM2.5,2L5,2L5,13L2.5,13C2.224,13 2,12.776 2,12.5L2,2.5C2,2.224 2.224,2 2.5,2Z"/>
</svg>
